# Blender v3.1.2 OBJ File: 'cityassetpack.blend'
# www.blender.org
mtllib busstop.mtl
o busstop_Cube.021
v -1.915420 -0.011805 1.710307
v -1.915420 -0.011805 1.514843
v 2.056855 -0.011805 1.710307
v 2.056855 -0.011805 1.514843
v -1.915420 3.023844 1.710307
v -1.915420 3.023844 1.514843
v 2.056855 3.023844 1.514843
v 2.056855 3.023844 1.710307
v 0.693213 3.023844 -2.397339
v -0.551777 3.023844 -2.397339
v -0.551777 3.023844 -2.533261
v 0.693213 3.023844 -2.533261
v -0.551777 0.000070 -2.397339
v 0.693213 0.000070 -2.397339
v 0.693213 0.000070 -2.533261
v -0.551777 0.000070 -2.533261
v -1.915420 0.982584 1.514843
v 2.056855 0.982584 1.514843
v 2.056855 0.982584 1.710307
v -1.915420 0.982584 1.710307
v 0.070718 -0.011805 1.514843
v 0.070718 0.982584 1.514843
v 0.619938 0.263170 1.514843
v 0.619938 0.707608 1.514843
v 1.507635 0.707608 1.514843
v 1.507635 0.263170 1.514843
v -1.366199 0.263170 1.514843
v -1.366199 0.707608 1.514843
v -0.478503 0.707608 1.514843
v -0.478503 0.263170 1.514843
v 0.619938 0.707608 -1.680403
v 0.619938 0.263170 -1.680403
v 1.507635 0.263170 -1.680403
v 1.507635 0.707608 -1.680403
v -1.366199 0.707608 -1.680403
v -1.366199 0.263170 -1.680403
v -0.478503 0.263170 -1.680403
v -0.478503 0.707608 -1.680403
v 1.507635 0.263170 -1.282479
v 1.507635 0.707608 -1.282479
v 0.619938 0.263170 -1.282479
v 0.619938 0.707608 -1.282479
v -0.478503 0.707608 -1.282479
v -1.366199 0.707608 -1.282479
v -1.366199 0.263170 -1.282479
v -0.478503 0.263170 -1.282479
v 1.507635 0.016984 -1.680403
v 0.619938 0.016984 -1.680403
v -0.478503 0.016984 -1.680403
v -1.366199 0.016984 -1.680403
v 1.507635 0.016984 -1.282479
v 0.619938 0.016984 -1.282479
v -0.478503 0.016984 -1.282479
v -1.366199 0.016984 -1.282479
v -1.814122 3.138266 1.708864
v 2.043984 3.138266 1.708864
v 2.043984 3.138266 -2.557735
v -1.814122 3.138266 -2.557735
v 1.400967 3.420659 -2.557735
v 0.757949 3.604346 -2.557735
v 0.114931 3.695925 -2.557735
v -0.528087 3.604346 -2.557735
v -1.171104 3.420659 -2.557735
v -1.171104 3.420659 1.708864
v -0.528087 3.604346 1.708864
v 0.114931 3.695925 1.708864
v 0.757949 3.604346 1.708864
v 1.400967 3.420659 1.708864
v -1.171104 3.617703 -2.557735
v -1.814122 3.335310 -2.557735
v -1.814122 3.335310 1.708864
v 2.043984 3.335310 -2.557735
v 2.043984 3.335310 1.708864
v 1.400967 3.617703 1.708864
v 1.400967 3.617703 -2.557735
v 0.757949 3.801390 -2.557735
v 0.114931 3.892969 -2.557735
v -0.528087 3.801390 -2.557735
v -1.171104 3.617703 1.708864
v -0.528087 3.801390 1.708864
v 0.114931 3.892969 1.708864
v 0.757949 3.801390 1.708864
v -1.120965 -0.011805 1.710307
v -0.326510 -0.011805 1.710307
v 0.467945 -0.011805 1.710307
v 1.262400 -0.011805 1.710307
v 1.262400 3.023844 1.710307
v 0.467945 3.023844 1.710307
v -0.326510 3.023844 1.710307
v -1.120965 3.023844 1.710307
v -1.120965 3.023844 1.514843
v -0.326510 3.023844 1.514843
v 0.467945 3.023844 1.514843
v 1.262400 3.023844 1.514843
v 1.262400 0.982584 1.710307
v 0.467945 0.982584 1.710307
v -0.326510 0.982584 1.710307
v -1.120965 0.982584 1.710307
v 0.961087 3.023844 1.542899
v 0.769259 3.023844 1.542899
v 0.769259 3.023844 1.682251
v 0.961087 3.023844 1.682251
v -0.627823 3.023844 1.542899
v -0.819651 3.023844 1.542899
v -0.819651 3.023844 1.682251
v -0.627823 3.023844 1.682251
v 0.769259 3.615966 1.542899
v 0.961087 3.615966 1.542899
v 0.961087 3.615966 1.682251
v 0.769259 3.615966 1.682251
v -0.819651 3.615966 1.542899
v -0.627823 3.615966 1.542899
v -0.627823 3.615966 1.682251
v -0.819651 3.615966 1.682251
v 0.139840 3.023844 -2.415949
v 0.139840 3.023844 -2.514652
v 0.001595 3.023844 -2.514652
v 0.001595 3.023844 -2.415949
v 0.139840 3.747311 -2.415949
v 0.139840 3.747311 -2.514652
v 0.001595 3.747311 -2.415949
v 0.001595 3.747311 -2.514652
vt 0.427695 0.315537
vt 0.427695 0.315537
vt 0.427695 0.315537
vt 0.427695 0.315537
vt 0.427695 0.315537
vt 0.427695 0.315537
vt 0.427695 0.315537
vt 0.427695 0.315537
vt 0.427695 0.315537
vt 0.427695 0.315537
vt 0.427695 0.315537
vt 0.427695 0.315537
vt 0.427695 0.315537
vt 0.427695 0.315537
vt 0.427695 0.315537
vt 0.427695 0.315537
vt 0.427695 0.315537
vt 0.427695 0.315537
vt 0.427695 0.315537
vt 0.427695 0.315537
vt 0.427695 0.315537
vt 0.427695 0.315537
vt 0.427695 0.315537
vt 0.427695 0.315537
vt 0.427695 0.315537
vt 0.427695 0.315537
vt 0.427695 0.315537
vt 0.427695 0.315537
vt 0.433906 0.605537
vt 0.433906 0.605537
vt 0.433906 0.605537
vt 0.433906 0.605537
vt 0.433906 0.605537
vt 0.433906 0.605537
vt 0.433906 0.605537
vt 0.433906 0.605537
vt 0.427695 0.315537
vt 0.427695 0.315537
vt 0.427695 0.315537
vt 0.427695 0.315537
vt 0.427695 0.315537
vt 0.427695 0.315537
vt 0.427695 0.315537
vt 0.427695 0.315537
vt 0.825211 0.085537
vt 0.825211 0.085537
vt 0.825211 0.085537
vt 0.825211 0.085537
vt 0.427695 0.315537
vt 0.427695 0.315537
vt 0.427695 0.315537
vt 0.427695 0.315537
vt 0.427695 0.315537
vt 0.427695 0.315537
vt 0.427695 0.315537
vt 0.427695 0.315537
vt 0.825211 0.085537
vt 0.825211 0.085537
vt 0.825211 0.085537
vt 0.825211 0.085537
vt 0.825211 0.085537
vt 0.825211 0.085537
vt 0.825211 0.085537
vt 0.825211 0.085537
vt 0.825211 0.085537
vt 0.825211 0.085537
vt 0.825211 0.085537
vt 0.825211 0.085537
vt 0.825211 0.085537
vt 0.825211 0.085537
vt 0.825211 0.085537
vt 0.825211 0.085537
vt 0.825211 0.085537
vt 0.825211 0.085537
vt 0.825211 0.085537
vt 0.825211 0.085537
vt 0.825211 0.085537
vt 0.825211 0.085537
vt 0.825211 0.085537
vt 0.825211 0.085537
vt 0.825211 0.085537
vt 0.825211 0.085537
vt 0.825211 0.085537
vt 0.825211 0.085537
vt 0.427695 0.315537
vt 0.427695 0.315537
vt 0.427695 0.315537
vt 0.427695 0.315537
vt 0.433906 0.605537
vt 0.433906 0.605537
vt 0.433906 0.605537
vt 0.433906 0.605537
vt 0.433906 0.605537
vt 0.433906 0.605537
vt 0.433906 0.605537
vt 0.433906 0.605537
vt 0.433906 0.605537
vt 0.433906 0.605537
vt 0.433906 0.605537
vt 0.433906 0.605537
vt 0.433906 0.605537
vt 0.433906 0.605537
vt 0.433906 0.605537
vt 0.433906 0.605537
vt 0.433906 0.605537
vt 0.433906 0.605537
vt 0.433906 0.605537
vt 0.433906 0.605537
vt 0.427695 0.315537
vt 0.427695 0.315537
vt 0.427695 0.315537
vt 0.427695 0.315537
vt 0.427695 0.315537
vt 0.427695 0.315537
vt 0.427695 0.315537
vt 0.427695 0.315537
vt 0.427695 0.315537
vt 0.427695 0.315537
vt 0.427695 0.315537
vt 0.427695 0.315537
vt 0.427695 0.315537
vt 0.427695 0.315537
vt 0.427695 0.315537
vt 0.427695 0.315537
vt 0.427695 0.315537
vt 0.427695 0.315537
vt 0.427695 0.315537
vt 0.427695 0.315537
vt 0.427695 0.315537
vt 0.427695 0.315537
vt 0.427695 0.315537
vt 0.427695 0.315537
vt 0.427695 0.315537
vt 0.427695 0.315537
vt 0.427695 0.315537
vt 0.427695 0.315537
vt 0.427695 0.315537
vt 0.427695 0.315537
vn 0.0000 -1.0000 -0.0000
vn 1.0000 0.0000 0.0000
vn 0.0000 0.0000 1.0000
vn -1.0000 0.0000 0.0000
vn 0.0000 0.0000 -1.0000
vn 0.4021 -0.9156 0.0000
vn -0.4021 -0.9156 0.0000
vn 0.0000 1.0000 0.0000
vn 0.2747 -0.9615 0.0000
vn 0.1410 -0.9900 0.0000
vn -0.1410 -0.9900 0.0000
vn -0.2747 -0.9615 0.0000
vn -0.4021 0.9156 0.0000
vn 0.4021 0.9156 0.0000
vn -0.2747 0.9615 0.0000
vn -0.1410 0.9900 0.0000
vn 0.1410 0.9900 0.0000
vn 0.2747 0.9615 0.0000
usemtl newmaterial
s off
f 2/1/1 21/2/1 4/3/1 3/4/1 86/5/1 85/6/1 84/7/1 83/8/1 1/9/1
f 18/10/2 7/11/2 8/12/2 19/13/2
f 98/14/3 90/15/3 5/16/3 20/17/3
f 20/17/4 5/16/4 6/18/4 17/19/4
f 17/19/5 6/18/5 91/20/5 92/21/5 93/22/5 94/23/5 7/11/5 18/10/5 22/24/5
f 11/25/5 12/26/5 15/27/5 16/28/5
f 55/29/6 58/30/6 63/31/6 64/32/6
f 68/33/7 59/34/7 57/35/7 56/36/7
f 91/20/8 6/18/8 5/16/8 90/15/8
f 12/26/2 9/37/2 14/38/2 15/27/2
f 10/39/4 11/25/4 16/28/4 13/40/4
f 14/38/1 13/40/1 16/28/1 15/27/1
f 1/9/4 20/17/4 17/19/4 2/1/4
f 39/41/3 41/42/3 52/43/3 51/44/3
f 4/3/2 18/10/2 19/13/2 3/4/2
f 9/37/3 10/39/3 13/40/3 14/38/3
f 40/45/2 39/46/2 33/47/2 34/48/2
f 21/2/5 22/24/5 24/49/5 23/50/5
f 22/24/5 18/10/5 25/51/5 24/49/5
f 18/10/5 4/3/5 26/52/5 25/51/5
f 4/3/5 21/2/5 23/50/5 26/52/5
f 2/1/5 17/19/5 28/53/5 27/54/5
f 17/19/5 22/24/5 29/55/5 28/53/5
f 22/24/5 21/2/5 30/56/5 29/55/5
f 21/2/5 2/1/5 27/54/5 30/56/5
f 32/57/5 31/58/5 34/48/5 33/47/5
f 36/59/5 35/60/5 38/61/5 37/62/5
f 44/63/8 43/64/8 38/61/8 35/60/8
f 45/65/4 44/63/4 35/60/4 36/59/4
f 42/66/8 40/45/8 34/48/8 31/58/8
f 43/64/2 46/67/2 37/62/2 38/61/2
f 41/68/4 42/66/4 31/58/4 32/57/4
f 36/59/5 37/62/5 49/69/5 50/70/5
f 23/71/4 24/72/4 42/66/4 41/68/4
f 24/72/8 25/73/8 40/45/8 42/66/8
f 25/73/2 26/74/2 39/46/2 40/45/2
f 26/74/1 23/71/1 41/68/1 39/46/1
f 30/75/1 27/76/1 45/65/1 46/67/1
f 29/77/2 30/75/2 46/67/2 43/64/2
f 27/76/4 28/78/4 44/63/4 45/65/4
f 28/78/8 29/77/8 43/64/8 44/63/8
f 51/79/1 52/80/1 48/81/1 47/82/1
f 53/83/1 54/84/1 50/70/1 49/69/1
f 32/57/5 33/47/5 47/82/5 48/81/5
f 41/68/4 32/57/4 48/81/4 52/80/4
f 33/47/2 39/46/2 51/79/2 47/82/2
f 46/85/3 45/86/3 54/87/3 53/88/3
f 45/65/4 36/59/4 50/70/4 54/84/4
f 37/62/2 46/67/2 53/83/2 49/69/2
f 83/8/3 98/14/3 20/17/3 1/9/3
f 64/32/9 63/31/9 62/89/9 65/90/9
f 65/90/10 62/89/10 61/91/10 66/92/10
f 66/92/11 61/91/11 60/93/11 67/94/11
f 67/94/12 60/93/12 59/34/12 68/33/12
f 71/95/13 79/96/13 69/97/13 70/98/13
f 74/99/14 73/100/14 72/101/14 75/102/14
f 79/96/15 80/103/15 78/104/15 69/97/15
f 80/103/16 81/105/16 77/106/16 78/104/16
f 81/105/17 82/107/17 76/108/17 77/106/17
f 82/107/18 74/99/18 75/102/18 76/108/18
f 57/35/5 59/34/5 75/102/5 72/101/5
f 66/92/3 67/94/3 82/107/3 81/105/3
f 59/34/5 60/93/5 76/108/5 75/102/5
f 67/94/3 68/33/3 74/99/3 82/107/3
f 63/31/5 58/30/5 70/98/5 69/97/5
f 60/93/5 61/91/5 77/106/5 76/108/5
f 61/91/5 62/89/5 78/104/5 77/106/5
f 62/89/5 63/31/5 69/97/5 78/104/5
f 58/30/4 55/29/4 71/95/4 70/98/4
f 56/36/2 57/35/2 72/101/2 73/100/2
f 55/29/3 64/32/3 79/96/3 71/95/3
f 64/32/3 65/90/3 80/103/3 79/96/3
f 65/90/3 66/92/3 81/105/3 80/103/3
f 68/33/3 56/36/3 73/100/3 74/99/3
f 117/109/4 118/110/4 121/111/4 122/112/4
f 3/4/3 19/13/3 95/113/3 86/5/3
f 86/5/3 95/113/3 96/114/3 85/6/3
f 85/6/3 96/114/3 97/115/3 84/7/3
f 84/7/3 97/115/3 98/14/3 83/8/3
f 7/11/8 94/23/8 87/116/8 8/12/8
f 100/117/4 101/118/4 110/119/4 107/120/4
f 93/22/8 92/21/8 89/121/8 88/122/8
f 103/123/5 104/124/5 111/125/5 112/126/5
f 19/13/3 8/12/3 87/116/3 95/113/3
f 95/113/3 87/116/3 88/122/3 96/114/3
f 96/114/3 88/122/3 89/121/3 97/115/3
f 97/115/3 89/121/3 90/15/3 98/14/3
f 94/23/8 93/22/8 100/117/8 99/127/8
f 93/22/8 88/122/8 101/118/8 100/117/8
f 88/122/8 87/116/8 102/128/8 101/118/8
f 87/116/8 94/23/8 99/127/8 102/128/8
f 92/21/8 91/20/8 104/124/8 103/123/8
f 91/20/8 90/15/8 105/129/8 104/124/8
f 90/15/8 89/121/8 106/130/8 105/129/8
f 89/121/8 92/21/8 103/123/8 106/130/8
f 108/131/8 107/120/8 110/119/8 109/132/8
f 112/126/8 111/125/8 114/133/8 113/134/8
f 105/129/3 106/130/3 113/134/3 114/133/3
f 99/127/5 100/117/5 107/120/5 108/131/5
f 106/130/2 103/123/2 112/126/2 113/134/2
f 101/118/3 102/128/3 109/132/3 110/119/3
f 102/128/2 99/127/2 108/131/2 109/132/2
f 104/124/4 105/129/4 114/133/4 111/125/4
f 9/37/8 12/26/8 116/135/8 115/136/8
f 12/26/8 11/25/8 117/109/8 116/135/8
f 11/25/8 10/39/8 118/110/8 117/109/8
f 10/39/8 9/37/8 115/136/8 118/110/8
f 119/137/8 120/138/8 122/112/8 121/111/8
f 118/110/3 115/136/3 119/137/3 121/111/3
f 116/135/5 117/109/5 122/112/5 120/138/5
f 115/136/2 116/135/2 120/138/2 119/137/2
