# Blender v3.1.2 OBJ File: 'cityassetpack.blend'
# www.blender.org
mtllib trafficlight.mtl
o trafficsignal_Plane.001
v -0.154452 -0.432674 0.021329
v 0.295887 -0.432674 0.021329
v -0.154452 -0.432674 -0.308083
v 0.295887 -0.432674 -0.308083
v -0.055263 -0.432674 -0.051226
v 0.196699 -0.432674 -0.051226
v 0.196699 -0.432674 -0.235529
v -0.055263 -0.432674 -0.235529
v -0.030483 -0.432674 -0.069352
v 0.171918 -0.432674 -0.069352
v 0.171918 -0.432674 -0.217403
v -0.030483 -0.432674 -0.217403
v -0.030483 6.471453 -0.069352
v 0.171918 6.471453 -0.069352
v -0.030483 6.471453 -0.217403
v 0.171918 6.471453 -0.217403
v -0.055263 -0.239793 -0.235529
v -0.055263 -0.239793 -0.051226
v 0.196699 -0.239793 -0.051226
v 0.196699 -0.239793 -0.235529
v -0.154452 -0.239793 0.021329
v 0.295887 -0.239793 0.021329
v 0.295887 -0.239793 -0.308083
v -0.154452 -0.239793 -0.308083
v -0.030483 6.029489 -0.069352
v -0.030483 6.029489 -0.217403
v 0.171918 6.029489 -0.217403
v 0.171918 6.029489 -0.069352
v 0.171918 5.623505 -0.069352
v -0.030483 5.623505 -0.217403
v 0.171918 5.623505 -0.217403
v -0.030483 5.623505 -0.069352
v 0.017537 5.671524 -0.069352
v 0.123899 5.671524 -0.069352
v 0.123899 5.981469 -0.069352
v 0.017537 5.981469 -0.069352
v 0.123899 5.671524 1.940332
v 0.017537 5.671524 1.940332
v 0.017537 5.981469 1.940332
v 0.123899 5.981469 1.940332
v 0.123899 5.981469 0.217746
v 0.123899 5.981469 0.504843
v 0.123899 5.981469 0.791941
v 0.123899 5.981469 1.079039
v 0.123899 5.981469 1.366137
v 0.123899 5.981469 1.653234
v 0.123899 5.671524 1.653234
v 0.123899 5.671524 1.366136
v 0.123899 5.671524 1.079039
v 0.123899 5.671524 0.791941
v 0.123899 5.671524 0.504843
v 0.123899 5.671524 0.217746
v 0.017537 5.671524 1.653234
v 0.017537 5.671524 1.366136
v 0.017537 5.671524 1.079039
v 0.017537 5.671524 0.791941
v 0.017537 5.671524 0.504843
v 0.017537 5.671524 0.217746
v 0.017537 5.981469 0.217746
v 0.017537 5.981469 0.504843
v 0.017537 5.981469 0.791941
v 0.017537 5.981469 1.079039
v 0.017537 5.981469 1.366137
v 0.017537 5.981469 1.653234
v 0.055944 5.723907 0.266268
v 0.055944 5.929086 0.266268
v 0.055944 5.929086 0.456321
v 0.055944 5.723907 0.456321
v 0.055944 5.723907 0.840463
v 0.055944 5.929086 0.840463
v 0.055944 5.929086 1.030517
v 0.055944 5.723907 1.030517
v 0.055944 5.723907 1.414658
v 0.055944 5.929086 1.414659
v 0.055944 5.929086 1.604712
v 0.055944 5.723907 1.604712
v 0.231440 5.929086 0.266268
v 0.265027 5.895499 0.299854
v 0.265027 5.757494 0.299854
v 0.231440 5.723907 0.266268
v 0.265027 5.757494 0.422735
v 0.231440 5.723907 0.456321
v 0.231440 5.929086 0.456321
v 0.265027 5.895499 0.422735
v 0.231440 5.929086 0.840463
v 0.265027 5.895499 0.874050
v 0.265027 5.757494 0.874049
v 0.231440 5.723907 0.840463
v 0.265027 5.757494 0.996930
v 0.231440 5.723907 1.030517
v 0.231440 5.929086 1.030517
v 0.265027 5.895499 0.996930
v 0.231440 5.929086 1.414659
v 0.265027 5.895499 1.448245
v 0.265027 5.757494 1.448245
v 0.231440 5.723907 1.414658
v 0.265027 5.757494 1.571126
v 0.231440 5.723907 1.604712
v 0.231440 5.929086 1.604712
v 0.265027 5.895499 1.571126
vt 0.533051 0.096189
vt 0.533051 0.096189
vt 0.533051 0.096189
vt 0.533051 0.096189
vt 0.533051 0.096189
vt 0.533051 0.096189
vt 0.533051 0.096189
vt 0.533051 0.096189
vt 0.533051 0.096189
vt 0.533051 0.096189
vt 0.533051 0.096189
vt 0.533051 0.096189
vt 0.533051 0.096189
vt 0.533051 0.096189
vt 0.533051 0.096189
vt 0.533051 0.096189
vt 0.533051 0.096189
vt 0.533051 0.096189
vt 0.533051 0.096189
vt 0.533051 0.096189
vt 0.533051 0.096189
vt 0.533051 0.096189
vt 0.533051 0.096189
vt 0.533051 0.096189
vt 0.533051 0.096189
vt 0.533051 0.096189
vt 0.533051 0.096189
vt 0.533051 0.096189
vt 0.533051 0.096189
vt 0.533051 0.096189
vt 0.533051 0.096189
vt 0.533051 0.096189
vt 0.533051 0.096189
vt 0.533051 0.096189
vt 0.533051 0.096189
vt 0.533051 0.096189
vt 0.533051 0.096189
vt 0.533051 0.096189
vt 0.533051 0.096189
vt 0.533051 0.096189
vt 0.533051 0.096189
vt 0.533051 0.096189
vt 0.533051 0.096189
vt 0.533051 0.096189
vt 0.533051 0.096189
vt 0.533051 0.096189
vt 0.533051 0.096189
vt 0.533051 0.096189
vt 0.533051 0.096189
vt 0.533051 0.096189
vt 0.533051 0.096189
vt 0.533051 0.096189
vt 0.533051 0.096189
vt 0.533051 0.096189
vt 0.533051 0.096189
vt 0.533051 0.096189
vt 0.533051 0.096189
vt 0.533051 0.096189
vt 0.533051 0.096189
vt 0.533051 0.096189
vt 0.533051 0.096189
vt 0.533051 0.096189
vt 0.533051 0.096189
vt 0.533051 0.096189
vt 0.818766 0.536189
vt 0.818766 0.536189
vt 0.818766 0.536189
vt 0.818766 0.536189
vt 0.188331 0.536189
vt 0.188331 0.536189
vt 0.188331 0.536189
vt 0.188331 0.536189
vt 0.188331 0.536189
vt 0.188331 0.536189
vt 0.533051 0.096189
vt 0.533051 0.096189
vt 0.533051 0.096189
vt 0.533051 0.096189
vt 0.533051 0.096189
vt 0.533051 0.096189
vt 0.533051 0.096189
vt 0.533051 0.096189
vt 0.533051 0.096189
vt 0.533051 0.096189
vt 0.533051 0.096189
vt 0.533051 0.096189
vt 0.334294 0.531189
vt 0.334294 0.531189
vt 0.334294 0.531189
vt 0.334294 0.531189
vt 0.188331 0.536189
vt 0.188331 0.536189
vt 0.818766 0.536189
vt 0.818766 0.536189
vt 0.334294 0.531189
vt 0.334294 0.531189
vt 0.334294 0.531189
vt 0.334294 0.531189
vt 0.818765 0.536189
vt 0.818765 0.536189
vt 0.334294 0.531189
vt 0.334294 0.531189
vt 0.188331 0.536189
vt 0.188331 0.536189
vt 0.188331 0.536189
vt 0.188331 0.536189
vt 0.334294 0.531189
vt 0.334294 0.531189
vt 0.818765 0.536189
vt 0.818766 0.536189
vt 0.818766 0.536189
vt 0.818766 0.536189
vn -1.0000 0.0000 0.0000
vn 0.0000 0.0000 -1.0000
vn 1.0000 0.0000 0.0000
vn 0.0000 1.0000 0.0000
vn 0.0000 0.0000 1.0000
vn 0.0000 -1.0000 0.0000
vn 0.5811 -0.0000 0.8138
vn 0.6105 -0.7920 0.0000
vn 0.5811 0.0000 -0.8138
vn 0.6105 0.7920 0.0000
vn 0.7071 0.0000 -0.7071
vn 0.7071 -0.7071 0.0000
vn 0.7071 0.7071 0.0000
vn 0.7071 -0.0000 0.7071
usemtl newmaterial
s off
f 26/1/1 25/2/1 13/3/1 15/4/1
f 4/5/2 3/6/2 24/7/2 23/8/2
f 5/9/3 8/10/3 17/11/3 18/12/3
f 3/6/1 1/13/1 21/14/1 24/7/1
f 7/15/1 6/16/1 19/17/1 20/18/1
f 5/9/4 6/16/4 10/19/4 9/20/4
f 6/16/4 7/15/4 11/21/4 10/19/4
f 7/15/4 8/10/4 12/22/4 11/21/4
f 8/10/4 5/9/4 9/20/4 12/22/4
f 13/3/4 14/23/4 16/24/4 15/4/4
f 28/25/3 27/26/3 16/24/3 14/23/3
f 27/26/2 26/1/2 15/4/2 16/24/2
f 21/14/4 22/27/4 19/17/4 18/12/4
f 22/27/4 23/8/4 20/18/4 19/17/4
f 23/8/4 24/7/4 17/11/4 20/18/4
f 24/7/4 21/14/4 18/12/4 17/11/4
f 2/28/3 4/5/3 23/8/3 22/27/3
f 8/10/5 7/15/5 20/18/5 17/11/5
f 6/16/2 5/9/2 18/12/2 19/17/2
f 1/13/5 2/28/5 22/27/5 21/14/5
f 31/29/2 30/30/2 26/1/2 27/26/2
f 47/31/3 46/32/3 40/33/3 37/34/3
f 29/35/3 31/29/3 27/26/3 28/25/3
f 30/30/1 32/36/1 25/2/1 26/1/1
f 10/19/3 11/21/3 31/29/3 29/35/3
f 13/3/5 25/2/5 28/25/5 14/23/5
f 11/21/2 12/22/2 30/30/2 31/29/2
f 9/20/5 10/19/5 29/35/5 32/36/5
f 12/22/1 9/20/1 32/36/1 30/30/1
f 32/36/5 29/35/5 34/37/5 33/38/5
f 29/35/5 28/25/5 35/39/5 34/37/5
f 28/25/5 25/2/5 36/40/5 35/39/5
f 25/2/5 32/36/5 33/38/5 36/40/5
f 38/41/5 37/34/5 40/33/5 39/42/5
f 53/43/6 47/31/6 37/34/6 38/41/6
f 46/32/4 64/44/4 39/42/4 40/33/4
f 64/44/1 53/43/1 38/41/1 39/42/1
f 36/40/1 33/38/1 58/45/1 59/46/1
f 59/46/1 58/45/1 57/47/1 60/48/1
f 60/48/1 57/47/1 56/49/1 61/50/1
f 61/50/1 56/49/1 55/51/1 62/52/1
f 62/52/1 55/51/1 54/53/1 63/54/1
f 63/54/1 54/53/1 53/43/1 64/44/1
f 35/39/4 36/40/4 59/46/4 41/55/4
f 41/55/4 59/46/4 60/48/4 42/56/4
f 42/56/4 60/48/4 61/50/4 43/57/4
f 43/57/4 61/50/4 62/52/4 44/58/4
f 44/58/4 62/52/4 63/54/4 45/59/4
f 45/59/4 63/54/4 64/44/4 46/32/4
f 33/38/6 34/37/6 52/60/6 58/45/6
f 58/45/6 52/60/6 51/61/6 57/47/6
f 57/47/6 51/61/6 50/62/6 56/49/6
f 56/49/6 50/62/6 49/63/6 55/51/6
f 55/51/6 49/63/6 48/64/6 54/53/6
f 54/53/6 48/64/6 47/31/6 53/43/6
f 34/37/3 35/39/3 41/55/3 52/60/3
f 75/65/5 76/66/5 98/67/5 99/68/5
f 51/61/3 42/56/3 43/57/3 50/62/3
f 72/69/6 69/70/6 88/71/6 90/72/6
f 49/63/3 44/58/3 45/59/3 48/64/3
f 69/70/2 70/73/2 85/74/2 88/71/2
f 52/60/7 41/55/7 66/75/7 65/76/7
f 41/55/8 42/56/8 67/77/8 66/75/8
f 42/56/9 51/61/9 68/78/9 67/77/9
f 51/61/10 52/60/10 65/76/10 68/78/10
f 50/62/7 43/57/7 70/79/7 69/80/7
f 43/57/8 44/58/8 71/81/8 70/79/8
f 44/58/9 49/63/9 72/82/9 71/81/9
f 49/63/10 50/62/10 69/80/10 72/82/10
f 48/64/7 45/59/7 74/83/7 73/84/7
f 45/59/8 46/32/8 75/85/8 74/83/8
f 46/32/9 47/31/9 76/86/9 75/85/9
f 47/31/10 48/64/10 73/84/10 76/86/10
f 66/87/4 67/88/4 83/89/4 77/90/4
f 70/73/4 71/91/4 91/92/4 85/74/4
f 74/93/4 75/65/4 99/68/4 93/94/4
f 79/95/3 78/96/3 84/97/3 81/98/3
f 73/99/2 74/93/2 93/94/2 96/100/2
f 76/66/6 73/99/6 96/100/6 98/67/6
f 67/88/5 68/101/5 82/102/5 83/89/5
f 87/103/3 86/104/3 92/105/3 89/106/3
f 68/101/6 65/107/6 80/108/6 82/102/6
f 71/91/5 72/69/5 90/72/5 91/92/5
f 95/109/3 94/110/3 100/111/3 97/112/3
f 78/96/11 79/95/11 80/108/11 77/90/11
f 82/102/12 80/108/12 79/95/12 81/98/12
f 77/90/13 83/89/13 84/97/13 78/96/13
f 83/89/14 82/102/14 81/98/14 84/97/14
f 86/104/11 87/103/11 88/71/11 85/74/11
f 90/72/12 88/71/12 87/103/12 89/106/12
f 85/74/13 91/92/13 92/105/13 86/104/13
f 91/92/14 90/72/14 89/106/14 92/105/14
f 94/110/11 95/109/11 96/100/11 93/94/11
f 98/67/12 96/100/12 95/109/12 97/112/12
f 93/94/13 99/68/13 100/111/13 94/110/13
f 99/68/14 98/67/14 97/112/14 100/111/14
f 65/107/2 66/87/2 77/90/2 80/108/2
