# Blender v3.1.2 OBJ File: 'cityassetpack.blend'
# www.blender.org
mtllib shop.mtl
o shop_Cube.005
v -4.962740 -0.002640 -4.075067
v -3.768774 6.192549 -3.079649
v 5.037260 -0.002640 -4.075067
v -4.962741 -0.002640 4.262011
v -3.768774 6.192549 3.266588
v 4.718079 1.650075 4.262011
v -4.962740 6.192549 -4.075067
v 5.037260 6.192549 -4.075067
v 5.037260 6.192549 4.262011
v -4.962741 6.192549 4.262011
v -4.962740 7.533840 -4.075067
v 5.037260 7.533840 -4.075067
v 5.037260 7.533840 4.262011
v -4.962741 7.533840 4.262011
v -4.962741 5.578641 4.262011
v -4.041492 5.581809 4.262011
v -4.962740 5.578641 -4.075067
v -4.041491 5.578641 -4.075067
v -0.937882 -0.002640 -4.075067
v -4.041491 -0.002640 -4.075067
v -4.041491 6.192549 -4.075067
v -0.937882 6.192549 -4.075067
v -0.618701 1.650075 4.262011
v -0.937882 6.192549 4.262011
v -4.041492 6.192549 4.262011
v -3.643504 6.192549 -3.079649
v -3.643504 6.192549 3.266588
v -4.041491 7.533840 -4.075067
v -0.937882 7.533840 -4.075067
v -0.937882 7.533840 4.262011
v -4.041492 7.533840 4.262011
v -0.937882 5.578641 -4.075067
v 4.718079 5.248231 4.262011
v -0.618701 5.248231 4.262011
v -4.041492 0.018483 4.262011
v 5.037260 5.578641 -4.075067
v -0.937882 0.062224 3.806261
v -0.937882 5.578641 3.806261
v -4.041492 5.581809 3.806261
v -4.041492 0.083347 3.806261
v -0.937882 -0.002640 4.262011
v 5.037260 -0.002640 4.262011
v 5.037260 5.578641 4.262011
v -0.937882 5.578641 4.262011
v -0.618701 1.650075 3.995325
v 4.718079 1.650075 3.995329
v 4.718079 5.248231 3.995329
v -0.618701 5.248231 3.995325
v -4.041491 0.119584 -3.806379
v -4.041491 5.578641 -3.806379
v -0.937882 0.119584 -3.806379
v -0.937882 5.578641 -3.806379
v 4.718079 6.473323 5.924933
v -4.185961 6.473323 5.924933
v -4.185961 7.101128 4.424124
v 4.718079 7.101128 4.424124
v -4.185961 6.208144 5.924933
v 4.718079 6.208144 5.924933
v -4.185961 6.836052 4.424124
v 4.718079 6.836052 4.424124
v -4.185961 7.101128 4.183398
v 4.718079 7.101128 4.183398
v -4.185961 6.836052 4.183398
v 4.718079 6.836052 4.183398
v -2.207286 6.836052 4.183398
v -3.196624 6.836052 4.183398
v 3.728742 7.101128 4.183398
v 2.739403 7.101128 4.183398
v 1.750065 7.101128 4.183398
v 0.760727 7.101128 4.183398
v -0.228610 7.101128 4.183398
v -1.217948 7.101128 4.183398
v -2.207286 7.101128 4.183398
v -3.196624 7.101128 4.183398
v 3.728742 6.836052 4.424124
v 2.739403 6.836052 4.424124
v 1.750065 6.836052 4.424124
v 0.760727 6.836052 4.424124
v -0.228610 6.836052 4.424124
v -1.217948 6.836052 4.424124
v -2.207286 6.836052 4.424124
v -3.196624 6.836052 4.424124
v 3.728741 6.208144 5.924933
v 2.739403 6.208144 5.924933
v 1.750065 6.208144 5.924933
v 0.760727 6.208144 5.924933
v -0.228610 6.208144 5.924933
v -1.217948 6.208144 5.924933
v -2.207286 6.208144 5.924933
v -3.196624 6.208144 5.924933
v 3.728742 7.101128 4.424124
v 2.739403 7.101128 4.424124
v 1.750065 7.101128 4.424124
v 0.760727 7.101128 4.424124
v -0.228610 7.101128 4.424124
v -1.217948 7.101128 4.424124
v -2.207286 7.101128 4.424124
v -3.196624 7.101128 4.424124
v 3.728741 6.473323 5.924933
v 2.739403 6.473323 5.924933
v 1.750065 6.473323 5.924933
v 0.760727 6.473323 5.924933
v -0.228610 6.473323 5.924933
v -1.217948 6.473323 5.924933
v -2.207286 6.473323 5.924933
v -3.196624 6.473323 5.924933
v -1.217948 6.836052 4.183398
v -0.228610 6.836052 4.183398
v 0.760727 6.836052 4.183398
v 1.750065 6.836052 4.183398
v 2.739403 6.836052 4.183398
v 3.728742 6.836052 4.183398
v -4.041492 8.676319 4.262011
v -0.937882 8.676319 4.262011
v -0.937882 8.676319 -4.075067
v -4.041491 8.676319 -4.075067
v -4.962741 8.676319 4.262011
v 5.037260 8.676319 4.262011
v 5.037260 8.676319 -4.075067
v -4.962740 8.676319 -4.075067
v 4.389723 9.997360 3.358507
v -0.290345 9.997360 3.358507
v 4.389723 9.997360 -3.171564
v -0.290345 9.997360 -3.171564
vt 0.136663 0.537434
vt 0.136663 0.537434
vt 0.136663 0.537434
vt 0.136663 0.537434
vt 0.136663 0.537434
vt 0.136663 0.537434
vt 0.136663 0.537434
vt 0.136663 0.537434
vt 0.136663 0.537434
vt 0.136663 0.537434
vt 0.136663 0.537434
vt 0.136663 0.537434
vt 0.136663 0.537434
vt 0.136663 0.537434
vt 0.136663 0.537434
vt 0.136663 0.537434
vt 0.136663 0.537434
vt 0.136663 0.537434
vt 0.136663 0.537434
vt 0.136663 0.537434
vt 0.136663 0.537434
vt 0.136663 0.537434
vt 0.136663 0.537434
vt 0.136663 0.537434
vt 0.136663 0.537434
vt 0.136663 0.537434
vt 0.136663 0.537434
vt 0.136663 0.537434
vt 0.136663 0.537434
vt 0.136663 0.537434
vt 0.136663 0.537434
vt 0.136663 0.537434
vt 0.136663 0.537434
vt 0.136663 0.537434
vt 0.136663 0.537434
vt 0.136663 0.537434
vt 0.136663 0.537434
vt 0.136663 0.537434
vt 0.136663 0.537434
vt 0.136663 0.537434
vt 0.136663 0.537434
vt 0.136663 0.537434
vt 0.136663 0.537434
vt 0.136663 0.537434
vt 0.136663 0.537434
vt 0.384065 0.541777
vt 0.384065 0.541777
vt 0.384065 0.541777
vt 0.136663 0.537434
vt 0.136663 0.537434
vt 0.136663 0.537434
vt 0.136663 0.537434
vt 0.384065 0.541777
vt 0.384065 0.541777
vt 0.384065 0.541777
vt 0.136663 0.537434
vt 0.136663 0.537434
vt 0.136663 0.537434
vt 0.136663 0.537434
vt 0.136663 0.537434
vt 0.091468 0.464133
vt 0.091468 0.464133
vt 0.091468 0.464133
vt 0.091468 0.464133
vt 0.091468 0.464133
vt 0.091468 0.464133
vt 0.136663 0.537434
vt 0.136663 0.537434
vt 0.136663 0.537434
vt 0.765237 0.397275
vt 0.765237 0.397275
vt 0.765237 0.397275
vt 0.136663 0.537434
vt 0.136663 0.537434
vt 0.136663 0.537434
vt 0.091468 0.464133
vt 0.091468 0.464133
vt 0.091468 0.464133
vt 0.765237 0.397275
vt 0.765237 0.397275
vt 0.765237 0.397275
vt 0.091468 0.464133
vt 0.091468 0.464133
vt 0.091468 0.464133
vt 0.136663 0.537434
vt 0.136663 0.537434
vt 0.091468 0.464133
vt 0.091468 0.464133
vt 0.091468 0.464133
vt 0.765237 0.397275
vt 0.765237 0.397275
vt 0.765237 0.397275
vt 0.091468 0.464133
vt 0.091468 0.464133
vt 0.091468 0.464133
vt 0.765237 0.397275
vt 0.765237 0.397275
vt 0.765237 0.397275
vt 0.091468 0.464133
vt 0.091468 0.464133
vt 0.091468 0.464133
vt 0.091468 0.464133
vt 0.765237 0.397275
vt 0.765237 0.397275
vt 0.765237 0.397275
vt 0.765237 0.397275
vt 0.765237 0.397275
vt 0.765237 0.397275
vt 0.091468 0.464133
vt 0.091468 0.464133
vt 0.765237 0.397275
vt 0.765237 0.397275
vt 0.765237 0.397275
vt 0.091468 0.464133
vt 0.091468 0.464133
vt 0.765237 0.397275
vt 0.765237 0.397275
vt 0.091468 0.464133
vt 0.091468 0.464133
vt 0.091468 0.464133
vt 0.091468 0.464133
vt 0.091468 0.464133
vt 0.091468 0.464133
vt 0.091468 0.464133
vt 0.091468 0.464133
vt 0.765237 0.397275
vt 0.765237 0.397275
vt 0.765237 0.397275
vt 0.091468 0.464133
vt 0.091468 0.464133
vt 0.765237 0.397275
vt 0.765237 0.397275
vt 0.765237 0.397275
vt 0.091468 0.464133
vt 0.091468 0.464133
vt 0.091468 0.464133
vt 0.091468 0.464133
vt 0.091468 0.464133
vt 0.091468 0.464133
vt 0.765237 0.397275
vt 0.765237 0.397275
vt 0.765237 0.397275
vt 0.765237 0.397275
vt 0.765237 0.397275
vt 0.091468 0.464133
vt 0.091468 0.464133
vt 0.091468 0.464133
vt 0.765237 0.397275
vt 0.765237 0.397275
vt 0.765237 0.397275
vt 0.091468 0.464133
vt 0.091468 0.464133
vt 0.091468 0.464133
vt 0.765237 0.397275
vt 0.091468 0.464133
vt 0.091468 0.464133
vt 0.091468 0.464133
vt 0.091468 0.464133
vt 0.091468 0.464133
vt 0.765237 0.397275
vt 0.091468 0.464133
vt 0.765237 0.397275
vt 0.091468 0.464133
vt 0.091468 0.464133
vt 0.765237 0.397275
vt 0.765237 0.397275
vt 0.765237 0.397275
vt 0.765237 0.397275
vt 0.091468 0.464133
vt 0.091468 0.464133
vt 0.765237 0.397275
vt 0.765237 0.397275
vt 0.091468 0.464133
vt 0.091468 0.464133
vt 0.765237 0.397275
vt 0.765237 0.397275
vt 0.136663 0.537434
vt 0.136663 0.537434
vt 0.136663 0.537434
vt 0.136663 0.537434
vt 0.136663 0.537434
vt 0.136663 0.537434
vt 0.136663 0.537434
vt 0.136663 0.537434
vt 0.136663 0.537434
vt 0.136663 0.537434
vt 0.384065 0.541777
vt 0.384065 0.541777
vt 0.136663 0.537434
vt 0.136663 0.537434
vt 0.136663 0.537434
vt 0.136663 0.537434
vn 0.0000 0.0000 1.0000
vn 0.0000 0.0000 -1.0000
vn 1.0000 0.0000 0.0000
vn 0.0000 1.0000 -0.0000
vn -1.0000 0.0000 -0.0000
vn 0.0000 -1.0000 -0.0000
vn 0.0067 0.9900 0.1409
vn -0.0010 -1.0000 0.0000
vn 0.0000 0.9102 -0.4141
vn 0.0000 0.9225 0.3859
vn 0.0000 -0.9225 -0.3860
vn 0.8979 0.4401 0.0000
vn -0.8979 0.4401 0.0000
vn 0.0000 0.5645 -0.8254
vn 0.0000 0.5645 0.8254
vn 0.0000 -1.0000 0.0025
vn 0.0229 -0.9997 0.0025
vn -0.0068 -1.0000 -0.0000
usemtl newmaterial
s off
f 43/1/1 24/2/1 44/3/1
f 3/4/2 32/5/2 36/6/2
f 36/6/3 9/7/3 43/1/3
f 26/8/4 5/9/4 27/10/4
f 9/7/1 30/11/1 24/2/1
f 7/12/2 28/13/2 21/14/2
f 10/15/5 11/16/5 7/12/5
f 8/17/3 13/18/3 9/7/3
f 15/19/1 35/20/1 16/21/1
f 36/6/2 22/22/2 8/17/2
f 19/23/6 42/24/6 41/25/6
f 1/26/2 18/27/2 20/28/2
f 22/22/2 12/29/2 8/17/2
f 21/14/2 29/30/2 22/22/2
f 25/31/1 14/32/1 10/15/1
f 24/2/1 31/33/1 25/31/1
f 115/34/4 113/35/4 114/36/4
f 17/37/2 21/14/2 18/27/2
f 18/27/2 22/22/2 32/5/2
f 35/20/7 37/38/7 40/39/7
f 32/5/5 51/40/5 52/41/5
f 15/19/5 7/12/5 17/37/5
f 33/42/5 46/43/5 6/44/5
f 16/21/1 24/2/1 25/31/1
f 10/15/1 16/21/1 25/31/1
f 3/4/3 43/1/3 42/24/3
f 4/45/5 17/37/5 1/26/5
f 40/46/1 38/47/1 39/48/1
f 44/3/5 37/38/5 41/25/5
f 16/21/8 38/49/8 44/3/8
f 16/21/3 40/39/3 39/50/3
f 23/51/1 42/24/1 6/44/1
f 33/42/1 44/3/1 34/52/1
f 6/44/1 43/1/1 33/42/1
f 23/51/1 44/3/1 41/25/1
f 46/53/1 48/54/1 45/55/1
f 6/44/4 45/56/4 23/51/4
f 23/51/3 48/57/3 34/52/3
f 34/52/6 47/58/6 33/42/6
f 49/59/2 52/41/2 51/40/2
f 20/28/9 51/40/9 19/23/9
f 32/5/6 50/60/6 18/27/6
f 18/27/3 49/59/3 20/28/3
f 54/61/10 98/62/10 55/63/10
f 101/64/10 92/65/10 93/66/10
f 59/67/5 54/68/5 55/69/5
f 78/70/11 85/71/11 86/72/11
f 53/73/3 60/74/3 56/75/3
f 108/76/6 78/77/6 79/78/6
f 88/79/1 103/80/1 104/81/1
f 111/82/2 69/83/2 68/84/2
f 64/85/3 56/75/3 60/74/3
f 61/86/5 59/67/5 55/69/5
f 62/87/4 91/88/4 56/89/4
f 68/84/4 93/66/4 92/65/4
f 65/90/2 74/91/2 73/92/2
f 107/93/2 73/94/2 72/95/2
f 108/96/2 72/97/2 71/98/2
f 109/99/2 71/100/2 70/101/2
f 74/102/4 55/63/4 98/62/4
f 112/103/2 68/104/2 67/105/2
f 110/106/2 70/107/2 69/108/2
f 64/109/2 67/110/2 62/87/2
f 84/111/1 99/112/1 100/113/1
f 85/114/1 100/115/1 101/64/1
f 86/72/1 101/116/1 102/117/1
f 66/118/2 61/119/2 74/102/2
f 89/120/1 104/121/1 105/122/1
f 87/123/1 102/124/1 103/125/1
f 90/126/1 105/127/1 106/128/1
f 57/129/1 106/130/1 54/61/1
f 111/131/6 75/132/6 76/133/6
f 110/134/6 76/135/6 77/136/6
f 83/137/1 53/138/1 99/139/1
f 107/140/6 79/141/6 80/142/6
f 109/143/6 77/144/6 78/70/6
f 65/145/6 80/146/6 81/147/6
f 66/148/6 81/149/6 82/150/6
f 63/151/6 82/152/6 59/153/6
f 76/133/11 83/154/11 84/111/11
f 112/155/6 60/156/6 75/157/6
f 79/78/11 86/158/11 87/123/11
f 77/136/11 84/159/11 85/114/11
f 80/142/11 87/160/11 88/79/11
f 81/147/11 88/161/11 89/120/11
f 82/150/11 89/162/11 90/126/11
f 59/153/11 90/163/11 57/129/11
f 75/157/11 58/164/11 83/137/11
f 94/165/10 101/116/10 93/166/10
f 92/167/10 99/112/10 91/168/10
f 103/125/10 94/169/10 95/170/10
f 96/171/10 103/80/10 95/172/10
f 105/122/10 96/173/10 97/174/10
f 98/175/10 105/127/10 97/176/10
f 91/88/10 53/138/10 56/89/10
f 67/105/4 92/167/4 91/168/4
f 69/108/4 94/165/4 93/166/4
f 70/101/4 95/170/4 94/169/4
f 71/98/4 96/171/4 95/172/4
f 72/95/4 97/174/4 96/173/4
f 73/92/4 98/175/4 97/176/4
f 14/32/5 120/177/5 11/16/5
f 29/30/2 119/178/2 12/29/2
f 28/13/2 115/34/2 29/30/2
f 31/33/1 117/179/1 14/32/1
f 30/11/1 113/35/1 31/33/1
f 11/16/2 116/180/2 28/13/2
f 12/29/3 118/181/3 13/18/3
f 13/18/1 114/36/1 30/11/1
f 117/179/4 116/180/4 120/177/4
f 119/178/12 121/182/12 118/181/12
f 123/183/4 122/184/4 121/182/4
f 115/34/13 122/184/13 124/185/13
f 115/34/14 123/183/14 119/178/14
f 118/181/15 122/184/15 114/36/15
f 43/1/1 9/7/1 24/2/1
f 3/4/2 19/23/2 32/5/2
f 36/6/3 8/17/3 9/7/3
f 26/8/4 2/186/4 5/9/4
f 9/7/1 13/18/1 30/11/1
f 7/12/2 11/16/2 28/13/2
f 10/15/5 14/32/5 11/16/5
f 8/17/3 12/29/3 13/18/3
f 15/19/1 4/45/1 35/20/1
f 36/6/2 32/5/2 22/22/2
f 1/26/6 20/28/6 4/45/6
f 20/28/16 19/23/16 35/20/16
f 4/45/17 20/28/17 35/20/17
f 19/23/6 3/4/6 42/24/6
f 41/25/18 35/20/18 19/23/18
f 1/26/2 17/37/2 18/27/2
f 22/22/2 29/30/2 12/29/2
f 21/14/2 28/13/2 29/30/2
f 25/31/1 31/33/1 14/32/1
f 24/2/1 30/11/1 31/33/1
f 115/34/4 116/180/4 113/35/4
f 17/37/2 7/12/2 21/14/2
f 18/27/2 21/14/2 22/22/2
f 35/20/7 41/25/7 37/38/7
f 32/5/5 19/23/5 51/40/5
f 15/19/5 10/15/5 7/12/5
f 33/42/5 47/58/5 46/43/5
f 16/21/1 44/3/1 24/2/1
f 10/15/1 15/19/1 16/21/1
f 3/4/3 36/6/3 43/1/3
f 4/45/5 15/19/5 17/37/5
f 40/46/1 37/187/1 38/47/1
f 44/3/5 38/49/5 37/38/5
f 16/21/8 39/50/8 38/49/8
f 16/21/3 35/20/3 40/39/3
f 23/51/1 41/25/1 42/24/1
f 33/42/1 43/1/1 44/3/1
f 6/44/1 42/24/1 43/1/1
f 23/51/1 34/52/1 44/3/1
f 46/53/1 47/188/1 48/54/1
f 6/44/4 46/43/4 45/56/4
f 23/51/3 45/56/3 48/57/3
f 34/52/6 48/57/6 47/58/6
f 49/59/2 50/60/2 52/41/2
f 20/28/9 49/59/9 51/40/9
f 32/5/6 52/41/6 50/60/6
f 18/27/3 50/60/3 49/59/3
f 54/61/10 106/130/10 98/62/10
f 101/64/10 100/115/10 92/65/10
f 59/67/5 57/189/5 54/68/5
f 78/70/11 77/144/11 85/71/11
f 53/73/3 58/190/3 60/74/3
f 108/76/6 109/99/6 78/77/6
f 88/79/1 87/160/1 103/80/1
f 111/82/2 110/134/2 69/83/2
f 64/85/3 62/191/3 56/75/3
f 61/86/5 63/192/5 59/67/5
f 62/87/4 67/110/4 91/88/4
f 68/84/4 69/83/4 93/66/4
f 65/90/2 66/148/2 74/91/2
f 107/93/2 65/145/2 73/94/2
f 108/96/2 107/140/2 72/97/2
f 109/99/2 108/76/2 71/100/2
f 74/102/4 61/119/4 55/63/4
f 112/103/2 111/131/2 68/104/2
f 110/106/2 109/143/2 70/107/2
f 64/109/2 112/155/2 67/110/2
f 84/111/1 83/154/1 99/112/1
f 85/114/1 84/159/1 100/115/1
f 86/72/1 85/71/1 101/116/1
f 66/118/2 63/151/2 61/119/2
f 89/120/1 88/161/1 104/121/1
f 87/123/1 86/158/1 102/124/1
f 90/126/1 89/162/1 105/127/1
f 57/129/1 90/163/1 106/130/1
f 111/131/6 112/103/6 75/132/6
f 110/134/6 111/82/6 76/135/6
f 83/137/1 58/164/1 53/138/1
f 107/140/6 108/96/6 79/141/6
f 109/143/6 110/106/6 77/144/6
f 65/145/6 107/93/6 80/146/6
f 66/148/6 65/90/6 81/149/6
f 63/151/6 66/118/6 82/152/6
f 76/133/11 75/132/11 83/154/11
f 112/155/6 64/109/6 60/156/6
f 79/78/11 78/77/11 86/158/11
f 77/136/11 76/135/11 84/159/11
f 80/142/11 79/141/11 87/160/11
f 81/147/11 80/146/11 88/161/11
f 82/150/11 81/149/11 89/162/11
f 59/153/11 82/152/11 90/163/11
f 75/157/11 60/156/11 58/164/11
f 94/165/10 102/117/10 101/116/10
f 92/167/10 100/113/10 99/112/10
f 103/125/10 102/124/10 94/169/10
f 96/171/10 104/81/10 103/80/10
f 105/122/10 104/121/10 96/173/10
f 98/175/10 106/128/10 105/127/10
f 91/88/10 99/139/10 53/138/10
f 67/105/4 68/104/4 92/167/4
f 69/108/4 70/107/4 94/165/4
f 70/101/4 71/100/4 95/170/4
f 71/98/4 72/97/4 96/171/4
f 72/95/4 73/94/4 97/174/4
f 73/92/4 74/91/4 98/175/4
f 14/32/5 117/179/5 120/177/5
f 29/30/2 115/34/2 119/178/2
f 28/13/2 116/180/2 115/34/2
f 31/33/1 113/35/1 117/179/1
f 30/11/1 114/36/1 113/35/1
f 11/16/2 120/177/2 116/180/2
f 12/29/3 119/178/3 118/181/3
f 13/18/1 118/181/1 114/36/1
f 117/179/4 113/35/4 116/180/4
f 119/178/12 123/183/12 121/182/12
f 123/183/4 124/185/4 122/184/4
f 115/34/13 114/36/13 122/184/13
f 115/34/14 124/185/14 123/183/14
f 118/181/15 121/182/15 122/184/15
