# Blender v3.1.2 OBJ File: 'cityassetpack.blend'
# www.blender.org
mtllib checkeredtile2.mtl
o citytiles_Plane.004
v -61.929283 -0.432674 2.940605
v -49.929283 -0.432674 2.940605
v -61.929283 -0.432674 -9.059395
v -49.929283 -0.432674 -9.059395
v -61.929283 0.567326 -9.059395
v -61.929283 0.567326 2.940605
v -49.929283 0.567326 2.940605
v -49.929283 0.567326 -9.059395
v -61.929283 -0.432674 -7.345109
v -61.929283 -0.432674 -5.630823
v -61.929283 -0.432674 -3.916538
v -61.929283 -0.432674 -2.202252
v -61.929283 -0.432674 -0.487966
v -61.929283 -0.432674 1.226319
v -49.929283 -0.432674 1.226319
v -49.929283 -0.432674 -0.487966
v -49.929283 -0.432674 -2.202252
v -49.929283 -0.432674 -3.916538
v -49.929283 -0.432674 -5.630823
v -49.929283 -0.432674 -7.345109
v -61.929283 0.567326 -7.345109
v -61.929283 0.567326 -5.630823
v -61.929283 0.567326 -3.916538
v -61.929283 0.567326 -2.202252
v -61.929283 0.567326 -0.487966
v -61.929283 0.567326 1.226319
v -49.929283 0.567326 1.226319
v -49.929283 0.567326 -0.487966
v -49.929283 0.567326 -2.202252
v -49.929283 0.567326 -3.916538
v -49.929283 0.567326 -5.630823
v -49.929283 0.567326 -7.345109
v -60.214996 -0.432674 2.940605
v -58.500710 -0.432674 2.940605
v -56.786427 -0.432674 2.940605
v -55.072140 -0.432674 2.940605
v -53.357853 -0.432674 2.940605
v -51.643570 -0.432674 2.940605
v -51.643570 -0.432674 -9.059395
v -53.357853 -0.432674 -9.059395
v -55.072140 -0.432674 -9.059395
v -56.786427 -0.432674 -9.059395
v -58.500710 -0.432674 -9.059395
v -60.214996 -0.432674 -9.059395
v -60.214996 0.567326 2.940605
v -58.500710 0.567326 2.940605
v -56.786427 0.567326 2.940605
v -55.072140 0.567326 2.940605
v -53.357853 0.567326 2.940605
v -51.643570 0.567326 2.940605
v -51.643570 0.567326 -9.059395
v -53.357853 0.567326 -9.059395
v -55.072140 0.567326 -9.059395
v -56.786427 0.567326 -9.059395
v -58.500710 0.567326 -9.059395
v -60.214996 0.567326 -9.059395
v -51.794151 0.567326 1.075738
v -53.207272 0.567326 1.075738
v -55.222721 0.567326 1.075738
v -56.635845 0.567326 1.075738
v -58.651291 0.567326 1.075738
v -60.064415 0.567326 1.075738
v -51.794151 0.567326 -0.337385
v -53.207272 0.567326 -0.337385
v -55.222721 0.567326 -0.337385
v -56.635845 0.567326 -0.337385
v -58.651291 0.567326 -0.337385
v -60.064415 0.567326 -0.337385
v -51.794151 0.567326 -2.352833
v -53.207272 0.567326 -2.352833
v -55.222721 0.567326 -2.352833
v -56.635845 0.567326 -2.352833
v -58.651291 0.567326 -2.352833
v -60.064415 0.567326 -2.352833
v -51.794151 0.567326 -3.765956
v -53.207272 0.567326 -3.765956
v -55.222721 0.567326 -3.765956
v -56.635845 0.567326 -3.765956
v -58.651291 0.567326 -3.765956
v -60.064415 0.567326 -3.765956
v -51.794151 0.567326 -5.781404
v -53.207272 0.567326 -5.781404
v -55.222721 0.567326 -5.781404
v -56.635845 0.567326 -5.781404
v -58.651291 0.567326 -5.781404
v -60.064415 0.567326 -5.781404
v -51.794151 0.567326 -7.194528
v -53.207272 0.567326 -7.194528
v -55.222721 0.567326 -7.194528
v -56.635845 0.567326 -7.194528
v -58.651291 0.567326 -7.194528
v -60.064415 0.567326 -7.194528
v -60.214996 -0.432674 1.226319
v -58.500710 -0.432674 1.226319
v -56.786427 -0.432674 1.226319
v -55.072140 -0.432674 1.226319
v -53.357853 -0.432674 1.226319
v -51.643570 -0.432674 1.226319
v -60.214996 -0.432674 -0.487966
v -58.500710 -0.432674 -0.487966
v -56.786427 -0.432674 -0.487966
v -55.072140 -0.432674 -0.487966
v -53.357853 -0.432674 -0.487966
v -51.643570 -0.432674 -0.487966
v -60.214996 -0.432674 -2.202252
v -58.500710 -0.432674 -2.202252
v -56.786427 -0.432674 -2.202252
v -55.072140 -0.432674 -2.202252
v -53.357853 -0.432674 -2.202252
v -51.643570 -0.432674 -2.202252
v -60.214996 -0.432674 -3.916538
v -58.500710 -0.432674 -3.916538
v -56.786427 -0.432674 -3.916538
v -55.072140 -0.432674 -3.916538
v -53.357853 -0.432674 -3.916538
v -51.643570 -0.432674 -3.916538
v -60.214996 -0.432674 -5.630823
v -58.500710 -0.432674 -5.630823
v -56.786427 -0.432674 -5.630823
v -55.072140 -0.432674 -5.630823
v -53.357853 -0.432674 -5.630823
v -51.643570 -0.432674 -5.630823
v -60.214996 -0.432674 -7.345109
v -58.500710 -0.432674 -7.345109
v -56.786427 -0.432674 -7.345109
v -55.072140 -0.432674 -7.345109
v -53.357853 -0.432674 -7.345109
v -51.643570 -0.432674 -7.345109
v -51.643570 0.567326 1.226319
v -53.357853 0.567326 1.226319
v -55.072140 0.567326 1.226319
v -56.786427 0.567326 1.226319
v -58.500710 0.567326 1.226319
v -60.214996 0.567326 1.226319
v -51.643570 0.567326 -0.487966
v -53.357853 0.567326 -0.487966
v -55.072140 0.567326 -0.487966
v -56.786427 0.567326 -0.487966
v -58.500710 0.567326 -0.487966
v -60.214996 0.567326 -0.487966
v -51.643570 0.567326 -2.202252
v -53.357853 0.567326 -2.202252
v -55.072140 0.567326 -2.202252
v -56.786427 0.567326 -2.202252
v -58.500710 0.567326 -2.202252
v -60.214996 0.567326 -2.202252
v -51.643570 0.567326 -3.916538
v -53.357853 0.567326 -3.916538
v -55.072140 0.567326 -3.916538
v -56.786427 0.567326 -3.916538
v -58.500710 0.567326 -3.916538
v -60.214996 0.567326 -3.916538
v -51.643570 0.567326 -5.630823
v -53.357853 0.567326 -5.630823
v -55.072140 0.567326 -5.630823
v -56.786427 0.567326 -5.630823
v -58.500710 0.567326 -5.630823
v -60.214996 0.567326 -5.630823
v -51.643570 0.567326 -7.345109
v -53.357853 0.567326 -7.345109
v -55.072140 0.567326 -7.345109
v -56.786427 0.567326 -7.345109
v -58.500710 0.567326 -7.345109
v -60.214996 0.567326 -7.345109
vt 0.145963 0.070000
vt 0.145963 0.070000
vt 0.145963 0.070000
vt 0.145963 0.070000
vt 0.139752 0.160000
vt 0.139752 0.160000
vt 0.139752 0.160000
vt 0.139752 0.160000
vt 0.145963 0.070000
vt 0.145963 0.070000
vt 0.145963 0.070000
vt 0.145963 0.070000
vt 0.145963 0.070000
vt 0.145963 0.070000
vt 0.145963 0.070000
vt 0.145963 0.070000
vt 0.145963 0.070000
vt 0.145963 0.070000
vt 0.145963 0.070000
vt 0.145963 0.070000
vt 0.145963 0.070000
vt 0.145963 0.070000
vt 0.145963 0.070000
vt 0.145963 0.070000
vt 0.145963 0.070000
vt 0.145963 0.070000
vt 0.145963 0.070000
vt 0.145963 0.070000
vt 0.145963 0.070000
vt 0.145963 0.070000
vt 0.145963 0.070000
vt 0.145963 0.070000
vt 0.145963 0.070000
vt 0.145963 0.070000
vt 0.145963 0.070000
vt 0.145963 0.070000
vt 0.145963 0.070000
vt 0.145963 0.070000
vt 0.145963 0.070000
vt 0.145963 0.070000
vt 0.145963 0.070000
vt 0.145963 0.070000
vt 0.139752 0.160000
vt 0.139752 0.160000
vt 0.139752 0.160000
vt 0.139752 0.160000
vt 0.139752 0.160000
vt 0.139752 0.160000
vt 0.139752 0.160000
vt 0.139752 0.160000
vt 0.139752 0.160000
vt 0.139752 0.160000
vt 0.139752 0.160000
vt 0.139752 0.160000
vt 0.145963 0.070000
vt 0.145963 0.070000
vt 0.145963 0.070000
vt 0.145963 0.070000
vt 0.145963 0.070000
vt 0.145963 0.070000
vt 0.145963 0.070000
vt 0.145963 0.070000
vt 0.145963 0.070000
vt 0.145963 0.070000
vt 0.145963 0.070000
vt 0.145963 0.070000
vt 0.145963 0.070000
vt 0.145963 0.070000
vt 0.145963 0.070000
vt 0.145963 0.070000
vt 0.145963 0.070000
vt 0.145963 0.070000
vt 0.145963 0.070000
vt 0.145963 0.070000
vt 0.145963 0.070000
vt 0.145963 0.070000
vt 0.145963 0.070000
vt 0.145963 0.070000
vt 0.145963 0.070000
vt 0.145963 0.070000
vt 0.145963 0.070000
vt 0.145963 0.070000
vt 0.145963 0.070000
vt 0.145963 0.070000
vt 0.145963 0.070000
vt 0.145963 0.070000
vt 0.145963 0.070000
vt 0.145963 0.070000
vt 0.145963 0.070000
vt 0.145963 0.070000
vt 0.145963 0.070000
vt 0.145963 0.070000
vt 0.145963 0.070000
vt 0.145963 0.070000
vt 0.139752 0.160000
vt 0.139752 0.160000
vt 0.139752 0.160000
vt 0.139752 0.160000
vt 0.142857 0.290000
vt 0.142857 0.290000
vt 0.142857 0.290000
vt 0.142857 0.290000
vt 0.139752 0.160000
vt 0.139752 0.160000
vt 0.139752 0.160000
vt 0.139752 0.160000
vt 0.142857 0.290000
vt 0.142857 0.290000
vt 0.142857 0.290000
vt 0.142857 0.290000
vt 0.139752 0.160000
vt 0.139752 0.160000
vt 0.139752 0.160000
vt 0.139752 0.160000
vt 0.142857 0.290000
vt 0.142857 0.290000
vt 0.142857 0.290000
vt 0.142857 0.290000
vt 0.139752 0.160000
vt 0.139752 0.160000
vt 0.139752 0.160000
vt 0.139752 0.160000
vt 0.139752 0.160000
vt 0.139752 0.160000
vt 0.139752 0.160000
vt 0.139752 0.160000
vt 0.142857 0.290000
vt 0.142857 0.290000
vt 0.142857 0.290000
vt 0.142857 0.290000
vt 0.139752 0.160000
vt 0.139752 0.160000
vt 0.142857 0.290000
vt 0.142857 0.290000
vt 0.142857 0.290000
vt 0.142857 0.290000
vt 0.139752 0.160000
vt 0.139752 0.160000
vt 0.142857 0.290000
vt 0.142857 0.290000
vt 0.142857 0.290000
vt 0.142857 0.290000
vt 0.139752 0.160000
vt 0.139752 0.160000
vt 0.139752 0.160000
vt 0.139752 0.160000
vt 0.139752 0.160000
vt 0.139752 0.160000
vt 0.139752 0.160000
vt 0.139752 0.160000
vt 0.142857 0.290000
vt 0.142857 0.290000
vt 0.142857 0.290000
vt 0.142857 0.290000
vt 0.139752 0.160000
vt 0.139752 0.160000
vt 0.142857 0.290000
vt 0.142857 0.290000
vt 0.142857 0.290000
vt 0.142857 0.290000
vt 0.139752 0.160000
vt 0.139752 0.160000
vt 0.142857 0.290000
vt 0.142857 0.290000
vt 0.142857 0.290000
vt 0.142857 0.290000
vt 0.139752 0.160000
vt 0.139752 0.160000
vt 0.139752 0.160000
vt 0.139752 0.160000
vt 0.139752 0.160000
vt 0.139752 0.160000
vt 0.145963 0.070000
vt 0.145963 0.070000
vt 0.145963 0.070000
vt 0.145963 0.070000
vt 0.145963 0.070000
vt 0.145963 0.070000
vt 0.145963 0.070000
vt 0.145963 0.070000
vt 0.145963 0.070000
vt 0.145963 0.070000
vt 0.145963 0.070000
vt 0.145963 0.070000
vt 0.145963 0.070000
vt 0.145963 0.070000
vt 0.139752 0.160000
vt 0.139752 0.160000
vt 0.139752 0.160000
vt 0.139752 0.160000
vt 0.139752 0.160000
vt 0.139752 0.160000
vt 0.139752 0.160000
vt 0.139752 0.160000
vt 0.139752 0.160000
vt 0.139752 0.160000
vt 0.139752 0.160000
vt 0.139752 0.160000
vt 0.139752 0.160000
vt 0.139752 0.160000
vt 0.139752 0.160000
vt 0.139752 0.160000
vt 0.139752 0.160000
vt 0.139752 0.160000
vt 0.139752 0.160000
vt 0.139752 0.160000
vt 0.139752 0.160000
vt 0.139752 0.160000
vt 0.139752 0.160000
vt 0.139752 0.160000
vt 0.139752 0.160000
vt 0.139752 0.160000
vt 0.139752 0.160000
vt 0.139752 0.160000
vt 0.139752 0.160000
vt 0.139752 0.160000
vt 0.139752 0.160000
vt 0.139752 0.160000
vt 0.139752 0.160000
vt 0.139752 0.160000
vt 0.139752 0.160000
vt 0.139752 0.160000
vt 0.139752 0.160000
vt 0.139752 0.160000
vt 0.139752 0.160000
vt 0.139752 0.160000
vt 0.139752 0.160000
vt 0.139752 0.160000
vn 0.0000 -1.0000 0.0000
vn 0.0000 1.0000 0.0000
vn 0.0000 0.0000 -1.0000
vn 0.0000 0.0000 1.0000
vn 1.0000 0.0000 0.0000
vn -1.0000 0.0000 0.0000
usemtl newmaterial
s off
f 128/1/1 39/2/1 4/3/1 20/4/1
f 159/5/2 32/6/2 8/7/2 51/8/2
f 44/9/3 3/10/3 5/11/3 56/12/3
f 38/13/4 2/14/4 7/15/4 50/16/4
f 20/4/5 4/3/5 8/17/5 32/18/5
f 14/19/6 1/20/6 6/21/6 26/22/6
f 3/10/6 9/23/6 21/24/6 5/11/6
f 9/23/6 10/25/6 22/26/6 21/24/6
f 10/25/6 11/27/6 23/28/6 22/26/6
f 11/27/6 12/29/6 24/30/6 23/28/6
f 12/29/6 13/31/6 25/32/6 24/30/6
f 13/31/6 14/19/6 26/22/6 25/32/6
f 2/14/5 15/33/5 27/34/5 7/15/5
f 15/33/5 16/35/5 28/36/5 27/34/5
f 16/35/5 17/37/5 29/38/5 28/36/5
f 17/37/5 18/39/5 30/40/5 29/38/5
f 18/39/5 19/41/5 31/42/5 30/40/5
f 19/41/5 20/4/5 32/18/5 31/42/5
f 50/43/2 7/44/2 27/45/2 129/46/2
f 129/46/2 27/45/2 28/47/2 135/48/2
f 135/48/2 28/47/2 29/49/2 141/50/2
f 141/50/2 29/49/2 30/51/2 147/52/2
f 147/52/2 30/51/2 31/53/2 153/54/2
f 153/54/2 31/53/2 32/6/2 159/5/2
f 38/13/1 98/55/1 15/33/1 2/14/1
f 98/55/1 104/56/1 16/35/1 15/33/1
f 104/56/1 110/57/1 17/37/1 16/35/1
f 110/57/1 116/58/1 18/39/1 17/37/1
f 116/58/1 122/59/1 19/41/1 18/39/1
f 122/59/1 128/1/1 20/4/1 19/41/1
f 10/25/1 9/23/1 123/60/1 117/61/1
f 117/61/1 123/60/1 124/62/1 118/63/1
f 118/63/1 124/62/1 125/64/1 119/65/1
f 119/65/1 125/64/1 126/66/1 120/67/1
f 120/67/1 126/66/1 127/68/1 121/69/1
f 121/69/1 127/68/1 128/1/1 122/59/1
f 11/27/1 10/25/1 117/61/1 111/70/1
f 111/70/1 117/61/1 118/63/1 112/71/1
f 112/71/1 118/63/1 119/65/1 113/72/1
f 113/72/1 119/65/1 120/67/1 114/73/1
f 114/73/1 120/67/1 121/69/1 115/74/1
f 115/74/1 121/69/1 122/59/1 116/58/1
f 12/29/1 11/27/1 111/70/1 105/75/1
f 105/75/1 111/70/1 112/71/1 106/76/1
f 106/76/1 112/71/1 113/72/1 107/77/1
f 107/77/1 113/72/1 114/73/1 108/78/1
f 108/78/1 114/73/1 115/74/1 109/79/1
f 109/79/1 115/74/1 116/58/1 110/57/1
f 13/31/1 12/29/1 105/75/1 99/80/1
f 99/80/1 105/75/1 106/76/1 100/81/1
f 100/81/1 106/76/1 107/77/1 101/82/1
f 101/82/1 107/77/1 108/78/1 102/83/1
f 102/83/1 108/78/1 109/79/1 103/84/1
f 103/84/1 109/79/1 110/57/1 104/56/1
f 14/19/1 13/31/1 99/80/1 93/85/1
f 93/85/1 99/80/1 100/81/1 94/86/1
f 94/86/1 100/81/1 101/82/1 95/87/1
f 95/87/1 101/82/1 102/83/1 96/88/1
f 96/88/1 102/83/1 103/84/1 97/89/1
f 97/89/1 103/84/1 104/56/1 98/55/1
f 1/20/1 14/19/1 93/85/1 33/90/1
f 33/90/1 93/85/1 94/86/1 34/91/1
f 34/91/1 94/86/1 95/87/1 35/92/1
f 35/92/1 95/87/1 96/88/1 36/93/1
f 36/93/1 96/88/1 97/89/1 37/94/1
f 37/94/1 97/89/1 98/55/1 38/13/1
f 22/95/2 158/96/2 164/97/2 21/98/2
f 86/99/2 85/100/2 91/101/2 92/102/2
f 157/103/2 156/104/2 162/105/2 163/106/2
f 84/107/2 83/108/2 89/109/2 90/110/2
f 155/111/2 154/112/2 160/113/2 161/114/2
f 82/115/2 81/116/2 87/117/2 88/118/2
f 23/119/2 152/120/2 158/96/2 22/95/2
f 152/120/2 151/121/2 157/103/2 158/96/2
f 151/121/2 150/122/2 156/104/2 157/103/2
f 150/122/2 149/123/2 155/111/2 156/104/2
f 149/123/2 148/124/2 154/112/2 155/111/2
f 148/124/2 147/52/2 153/54/2 154/112/2
f 24/125/2 146/126/2 152/120/2 23/119/2
f 74/127/2 73/128/2 79/129/2 80/130/2
f 145/131/2 144/132/2 150/122/2 151/121/2
f 72/133/2 71/134/2 77/135/2 78/136/2
f 143/137/2 142/138/2 148/124/2 149/123/2
f 70/139/2 69/140/2 75/141/2 76/142/2
f 25/143/2 140/144/2 146/126/2 24/125/2
f 140/144/2 139/145/2 145/131/2 146/126/2
f 139/145/2 138/146/2 144/132/2 145/131/2
f 138/146/2 137/147/2 143/137/2 144/132/2
f 137/147/2 136/148/2 142/138/2 143/137/2
f 136/148/2 135/48/2 141/50/2 142/138/2
f 26/149/2 134/150/2 140/144/2 25/143/2
f 62/151/2 61/152/2 67/153/2 68/154/2
f 133/155/2 132/156/2 138/146/2 139/145/2
f 60/157/2 59/158/2 65/159/2 66/160/2
f 131/161/2 130/162/2 136/148/2 137/147/2
f 58/163/2 57/164/2 63/165/2 64/166/2
f 6/167/2 45/168/2 134/150/2 26/149/2
f 45/168/2 46/169/2 133/155/2 134/150/2
f 46/169/2 47/170/2 132/156/2 133/155/2
f 47/170/2 48/171/2 131/161/2 132/156/2
f 48/171/2 49/172/2 130/162/2 131/161/2
f 49/172/2 50/43/2 129/46/2 130/162/2
f 1/20/4 33/90/4 45/173/4 6/21/4
f 33/90/4 34/91/4 46/174/4 45/173/4
f 34/91/4 35/92/4 47/175/4 46/174/4
f 35/92/4 36/93/4 48/176/4 47/175/4
f 36/93/4 37/94/4 49/177/4 48/176/4
f 37/94/4 38/13/4 50/16/4 49/177/4
f 4/3/3 39/2/3 51/178/3 8/17/3
f 39/2/3 40/179/3 52/180/3 51/178/3
f 40/179/3 41/181/3 53/182/3 52/180/3
f 41/181/3 42/183/3 54/184/3 53/182/3
f 42/183/3 43/185/3 55/186/3 54/184/3
f 43/185/3 44/9/3 56/12/3 55/186/3
f 21/98/2 164/97/2 56/187/2 5/188/2
f 164/97/2 163/106/2 55/189/2 56/187/2
f 163/106/2 162/105/2 54/190/2 55/189/2
f 162/105/2 161/114/2 53/191/2 54/190/2
f 161/114/2 160/113/2 52/192/2 53/191/2
f 160/113/2 159/5/2 51/8/2 52/192/2
f 9/23/1 3/10/1 44/9/1 123/60/1
f 123/60/1 44/9/1 43/185/1 124/62/1
f 124/62/1 43/185/1 42/183/1 125/64/1
f 125/64/1 42/183/1 41/181/1 126/66/1
f 126/66/1 41/181/1 40/179/1 127/68/1
f 127/68/1 40/179/1 39/2/1 128/1/1
f 57/193/2 58/194/2 130/162/2 129/46/2
f 59/195/2 60/196/2 132/156/2 131/161/2
f 61/197/2 62/198/2 134/150/2 133/155/2
f 64/199/2 63/200/2 135/48/2 136/148/2
f 66/201/2 65/202/2 137/147/2 138/146/2
f 68/203/2 67/204/2 139/145/2 140/144/2
f 69/205/2 70/206/2 142/138/2 141/50/2
f 71/207/2 72/208/2 144/132/2 143/137/2
f 73/209/2 74/210/2 146/126/2 145/131/2
f 76/211/2 75/212/2 147/52/2 148/124/2
f 78/213/2 77/214/2 149/123/2 150/122/2
f 80/215/2 79/216/2 151/121/2 152/120/2
f 81/217/2 82/218/2 154/112/2 153/54/2
f 83/219/2 84/220/2 156/104/2 155/111/2
f 85/221/2 86/222/2 158/96/2 157/103/2
f 88/223/2 87/224/2 159/5/2 160/113/2
f 90/225/2 89/226/2 161/114/2 162/105/2
f 92/227/2 91/228/2 163/106/2 164/97/2
f 86/222/2 92/227/2 164/97/2 158/96/2
f 91/228/2 85/221/2 157/103/2 163/106/2
f 84/220/2 90/225/2 162/105/2 156/104/2
f 89/226/2 83/219/2 155/111/2 161/114/2
f 82/218/2 88/223/2 160/113/2 154/112/2
f 87/224/2 81/217/2 153/54/2 159/5/2
f 74/210/2 80/215/2 152/120/2 146/126/2
f 79/216/2 73/209/2 145/131/2 151/121/2
f 72/208/2 78/213/2 150/122/2 144/132/2
f 77/214/2 71/207/2 143/137/2 149/123/2
f 70/206/2 76/211/2 148/124/2 142/138/2
f 75/212/2 69/205/2 141/50/2 147/52/2
f 62/198/2 68/203/2 140/144/2 134/150/2
f 67/204/2 61/197/2 133/155/2 139/145/2
f 60/196/2 66/201/2 138/146/2 132/156/2
f 65/202/2 59/195/2 131/161/2 137/147/2
f 58/194/2 64/199/2 136/148/2 130/162/2
f 63/200/2 57/193/2 129/46/2 135/48/2
