# Blender v3.1.2 OBJ File: 'cityassetpack.blend'
# www.blender.org
mtllib dirttile.mtl
o dirt_Plane.010
v -61.929283 -0.432674 26.940605
v -49.929283 -0.432674 26.940605
v -61.929283 -0.432674 14.940605
v -49.929283 -0.432674 14.940605
v -61.929283 0.567326 14.940605
v -61.929283 0.567326 26.940605
v -49.929283 0.567326 26.940605
v -49.929283 0.567326 14.940605
vt 0.862578 0.085000
vt 0.862578 0.085000
vt 0.862578 0.085000
vt 0.862578 0.085000
vt 0.862578 0.150000
vt 0.862578 0.150000
vt 0.862578 0.150000
vt 0.862578 0.150000
vt 0.862578 0.085000
vt 0.862578 0.085000
vt 0.862578 0.085000
vt 0.862578 0.085000
vn 0.0000 -1.0000 0.0000
vn 0.0000 1.0000 0.0000
vn 0.0000 0.0000 -1.0000
vn 0.0000 0.0000 1.0000
vn 1.0000 0.0000 0.0000
vn -1.0000 0.0000 0.0000
usemtl newmaterial
s off
f 1/1/1 3/2/1 4/3/1 2/4/1
f 6/5/2 7/6/2 8/7/2 5/8/2
f 4/3/3 3/2/3 5/9/3 8/10/3
f 1/1/4 2/4/4 7/11/4 6/12/4
f 2/4/5 4/3/5 8/10/5 7/11/5
f 3/2/6 1/1/6 6/12/6 5/9/6
