# Blender v3.1.2 OBJ File: 'cityassetpack.blend'
# www.blender.org
mtllib water.mtl
o water_Plane.003
v -5.999998 -1.000000 5.999997
v 6.000002 -1.000000 5.999997
v -5.999998 -1.000000 -6.000003
v 6.000002 -1.000000 -6.000003
v -5.999998 0.000000 -6.000003
v -5.999998 0.000000 5.999997
v 6.000002 0.000000 5.999997
v 6.000002 0.000000 -6.000003
vt 0.431677 0.385000
vt 0.431677 0.385000
vt 0.431677 0.385000
vt 0.434783 0.455000
vt 0.434783 0.455000
vt 0.434783 0.455000
vt 0.431677 0.385000
vt 0.431677 0.385000
vt 0.431677 0.385000
vt 0.431677 0.385000
vt 0.431677 0.385000
vt 0.434783 0.455000
vn 0.0000 -1.0000 0.0000
vn 0.0000 1.0000 0.0000
vn 0.0000 0.0000 -1.0000
vn 0.0000 0.0000 1.0000
vn 1.0000 0.0000 0.0000
vn -1.0000 0.0000 0.0000
usemtl newmaterial
s off
f 3/1/1 2/2/1 1/3/1
f 7/4/2 5/5/2 6/6/2
f 3/1/3 8/7/3 4/8/3
f 2/2/4 6/9/4 1/3/4
f 4/8/5 7/10/5 2/2/5
f 1/3/6 5/11/6 3/1/6
f 3/1/1 4/8/1 2/2/1
f 7/4/2 8/12/2 5/5/2
f 3/1/3 5/11/3 8/7/3
f 2/2/4 7/10/4 6/9/4
f 4/8/5 8/7/5 7/10/5
f 1/3/6 6/9/6 5/11/6
